# xmcd
#
# Track frame offsets:
#  150
#  13463
#  29002
#  40805
#  54414
#  70474
#  83411
#  98431
#  110623
#  123054
#  141641
#  157809
#  168389
#  179473
#  194126
#
# Disc length: 2802 seconds
#
# Revision: 1
# Processed by: cddbd v1.5.2PL0 Copyright (c) Steve Scherf et al.
# Submitted via: AltoMP3_Maker 3.0
#
DISCID=cf0af00f
DTITLE=Superstars of Country - Easy Loving - Disc 1
DYEAR=1900
DGENRE=
TTITLE0=Charlie Rich - Behind Closed Doors
TTITLE1=Lynn Anderson - Rose Garden
TTITLE2=Johnny Paycheck - Take This Job and Shove It
TTITLE3=Tanya Tucker - Delta Dawn
TTITLE4=Willie Nelson - Always on My Mind
TTITLE5=Crystal Gayle - Talking in Your Sleep
TTITLE6=George Jones - He Stopped Loving Her Today
TTITLE7=Tammy Wynette - Stand by Your Man
TTITLE8=Johnny Cash - Folsom Prison Blue (Live)
TTITLE9=Juice Newton - The Sweetest Thing
TTITLE10=Mickey Gilley - Stand by Me
TTITLE11=Willie Nelson - Blue Eyes Crying in the Rain
TTITLE12=Freddie Hart - Easy Loving
TTITLE13=Roseanne Cash - Seven Year Ache
TTITLE14=The Charlie Daniels Band - The Devil Went Down to Georgia
EXTD=
EXTT0=
EXTT1=
EXTT2=
EXTT3=
EXTT4=
EXTT5=
EXTT6=
EXTT7=
EXTT8=
EXTT9=
EXTT10=
EXTT11=
EXTT12=
EXTT13=
EXTT14=
PLAYORDER=
